<svg width="13" height="14" viewBox="0 0 13 14" fill="none" xmlns="http://www.w3.org/2000/svg">
<path d="M3.49554 12.1944C4.75588 12.9238 6.23847 13.17 7.66691 12.887C9.09535 12.6041 10.3721 11.8113 11.2592 10.6565C12.1463 9.50166 12.5831 8.06365 12.4883 6.61055C12.3934 5.15745 11.7734 3.78843 10.7437 2.75875C9.71398 1.72906 8.34497 1.10899 6.89187 1.01413C5.43876 0.919275 4.00076 1.35611 2.84595 2.2432C1.69114 3.13028 0.898349 4.40707 0.615391 5.83551C0.332432 7.26394 0.578616 8.74654 1.30804 10.0069L0.526169 12.3412C0.496789 12.4293 0.492525 12.5239 0.513856 12.6143C0.535186 12.7047 0.581268 12.7873 0.646935 12.853C0.712603 12.9186 0.795261 12.9647 0.885646 12.9861C0.976031 13.0074 1.07057 13.0031 1.15867 12.9737L3.49554 12.1944Z" stroke="white" stroke-linecap="round" stroke-linejoin="round"/>
</svg>
