<svg width="25" height="24" viewBox="0 0 25 24" fill="none" xmlns="http://www.w3.org/2000/svg">
<path d="M6.25 7.625H8.875V13.3125H6.25C6.13397 13.3125 6.02269 13.2664 5.94064 13.1844C5.85859 13.1023 5.8125 12.991 5.8125 12.875V8.0625C5.8125 7.94647 5.85859 7.83519 5.94064 7.75314C6.02269 7.67109 6.13397 7.625 6.25 7.625Z" stroke="#16191D" stroke-linecap="round" stroke-linejoin="round"/>
<path d="M8.875 13.3125L11.0625 17.6875C11.5266 17.6875 11.9717 17.5031 12.2999 17.1749C12.6281 16.8467 12.8125 16.4016 12.8125 15.9375V14.625H16.3125C16.4366 14.625 16.5593 14.5985 16.6724 14.5474C16.7855 14.4963 16.8865 14.4218 16.9686 14.3287C17.0507 14.2356 17.112 14.1261 17.1485 14.0074C17.185 13.8888 17.1959 13.7638 17.1804 13.6406L16.5241 8.39062C16.4975 8.17922 16.3946 7.98479 16.2349 7.84383C16.0751 7.70287 15.8693 7.62506 15.6562 7.625H8.875" stroke="#16191D" stroke-linecap="round" stroke-linejoin="round"/>
</svg>
