<svg width="25" height="24" viewBox="0 0 25 24" fill="none" xmlns="http://www.w3.org/2000/svg">
<path d="M6.25 10.6875H8.875V16.375H6.25C6.13397 16.375 6.02269 16.3289 5.94064 16.2469C5.85859 16.1648 5.8125 16.0535 5.8125 15.9375V11.125C5.8125 11.009 5.85859 10.8977 5.94064 10.8156C6.02269 10.7336 6.13397 10.6875 6.25 10.6875Z" stroke="#16191D" stroke-linecap="round" stroke-linejoin="round"/>
<path d="M8.875 10.6875L11.0625 6.3125C11.5266 6.3125 11.9717 6.49687 12.2999 6.82506C12.6281 7.15325 12.8125 7.59837 12.8125 8.0625V9.375H16.3125C16.4366 9.37503 16.5593 9.40148 16.6724 9.45257C16.7855 9.50366 16.8865 9.57823 16.9686 9.67133C17.0507 9.76444 17.112 9.87394 17.1485 9.99256C17.185 10.1112 17.1959 10.2362 17.1804 10.3594L16.5241 15.6094C16.4975 15.8208 16.3946 16.0152 16.2349 16.1562C16.0751 16.2971 15.8693 16.3749 15.6562 16.375H8.875" stroke="#16191D" stroke-linecap="round" stroke-linejoin="round"/>
</svg>
