<svg width="21" height="23" viewBox="0 0 21 23" fill="none" xmlns="http://www.w3.org/2000/svg">
<path d="M1.06933 9.07183C1.76428 10.2755 3.44933 10.8689 4.62196 10.1918C5.84735 9.48435 6.0477 7.82599 6.54443 6.99675C7.04116 6.16751 7.92725 5.84318 8.73696 5.73089C9.54668 5.61861 11.1979 6.39537 12.4652 5.66355C13.6566 4.9756 14.0256 3.33284 13.3306 2.12915C12.6357 0.925467 10.9506 0.332136 9.77802 1.00915C8.55263 1.71664 8.35228 3.375 7.85555 4.20423C7.35882 5.03347 6.72621 5.56196 5.70397 5.60046C4.68173 5.63896 3.20206 4.80562 1.93474 5.53744C0.743398 6.22538 0.374385 7.86814 1.06933 9.07183Z" fill="#013BDB"/>
<path d="M1.06933 9.07183C1.76428 10.2755 3.44933 10.8689 4.62196 10.1918C5.84735 9.48435 6.0477 7.82599 6.54443 6.99675C7.04116 6.16751 7.92725 5.84318 8.73696 5.73089C9.54668 5.61861 11.1979 6.39537 12.4652 5.66355C13.6566 4.9756 14.0256 3.33284 13.3306 2.12915C12.6357 0.925467 10.9506 0.332136 9.77802 1.00915C8.55263 1.71664 8.35228 3.375 7.85555 4.20423C7.35882 5.03347 6.72621 5.56196 5.70397 5.60046C4.68173 5.63896 3.20206 4.80562 1.93474 5.53744C0.743398 6.22538 0.374385 7.86814 1.06933 9.07183Z" fill="url(#paint0_linear_162_842)" fill-opacity="0.44" style="mix-blend-mode:plus-lighter"/>
<path d="M13.331 20.7713C12.6361 21.975 10.9511 22.5684 9.77842 21.8913C8.55303 21.1839 8.35268 19.5255 7.85595 18.6963C7.35922 17.867 6.47313 17.5427 5.66342 17.4304C4.85371 17.3181 3.20247 18.0949 1.93515 17.3631C0.743803 16.6751 0.37479 15.0324 1.06974 13.8287C1.76469 12.625 3.44973 12.0316 4.62236 12.7087C5.84776 13.4161 6.0481 15.0745 6.54483 15.9037C7.04157 16.733 7.67418 17.2615 8.69641 17.3C9.71865 17.3385 11.1983 16.5051 12.4656 17.2369C13.657 17.9249 14.026 19.5677 13.331 20.7713Z" fill="#013BDB"/>
<path d="M13.331 20.7713C12.6361 21.975 10.9511 22.5684 9.77842 21.8913C8.55303 21.1839 8.35268 19.5255 7.85595 18.6963C7.35922 17.867 6.47313 17.5427 5.66342 17.4304C4.85371 17.3181 3.20247 18.0949 1.93515 17.3631C0.743803 16.6751 0.37479 15.0324 1.06974 13.8287C1.76469 12.625 3.44973 12.0316 4.62236 12.7087C5.84776 13.4161 6.0481 15.0745 6.54483 15.9037C7.04157 16.733 7.67418 17.2615 8.69641 17.3C9.71865 17.3385 11.1983 16.5051 12.4656 17.2369C13.657 17.9249 14.026 19.5677 13.331 20.7713Z" fill="url(#paint1_linear_162_842)" fill-opacity="0.44" style="mix-blend-mode:plus-lighter"/>
<path d="M17.5328 18.9424C18.9227 18.9424 20.2791 17.7798 20.2791 16.4257C20.2791 15.0108 18.9431 14.0081 18.4733 13.1633C18.0035 12.3185 18.1657 11.3889 18.4733 10.6316C18.7809 9.8742 20.2792 8.83257 20.2791 7.36912C20.279 5.99342 19.0409 4.85246 17.651 4.85246C16.2611 4.85246 14.9047 6.01509 14.9047 7.36912C14.9047 8.78409 16.2407 9.78677 16.7105 10.6316C17.1803 11.4764 17.3216 12.2885 16.8439 13.193C16.3661 14.0975 14.9046 14.9623 14.9047 16.4257C14.9048 17.8014 16.1429 18.9424 17.5328 18.9424Z" fill="#013BDB"/>
<path d="M17.5328 18.9424C18.9227 18.9424 20.2791 17.7798 20.2791 16.4257C20.2791 15.0108 18.9431 14.0081 18.4733 13.1633C18.0035 12.3185 18.1657 11.3889 18.4733 10.6316C18.7809 9.8742 20.2792 8.83257 20.2791 7.36912C20.279 5.99342 19.0409 4.85246 17.651 4.85246C16.2611 4.85246 14.9047 6.01509 14.9047 7.36912C14.9047 8.78409 16.2407 9.78677 16.7105 10.6316C17.1803 11.4764 17.3216 12.2885 16.8439 13.193C16.3661 14.0975 14.9046 14.9623 14.9047 16.4257C14.9048 17.8014 16.1429 18.9424 17.5328 18.9424Z" fill="url(#paint2_linear_162_842)" fill-opacity="0.44" style="mix-blend-mode:plus-lighter"/>
<defs>
<linearGradient id="paint0_linear_162_842" x1="10.4996" y1="22.1759" x2="10.4996" y2="0.724548" gradientUnits="userSpaceOnUse">
<stop stop-color="#000C2F" stop-opacity="0"/>
<stop offset="1" stop-color="#000C2F"/>
</linearGradient>
<linearGradient id="paint1_linear_162_842" x1="10.4996" y1="22.1759" x2="10.4996" y2="0.724548" gradientUnits="userSpaceOnUse">
<stop stop-color="#000C2F" stop-opacity="0"/>
<stop offset="1" stop-color="#000C2F"/>
</linearGradient>
<linearGradient id="paint2_linear_162_842" x1="10.4996" y1="22.1759" x2="10.4996" y2="0.724548" gradientUnits="userSpaceOnUse">
<stop stop-color="#000C2F" stop-opacity="0"/>
<stop offset="1" stop-color="#000C2F"/>
</linearGradient>
</defs>
</svg>
