<svg width="25" height="24" viewBox="0 0 25 24" fill="none" xmlns="http://www.w3.org/2000/svg">
<path d="M8.875 14.1875H6.25C6.13397 14.1875 6.02269 14.1414 5.94064 14.0594C5.85859 13.9773 5.8125 13.866 5.8125 13.75V10.25C5.8125 10.134 5.85859 10.0227 5.94064 9.94064C6.02269 9.85859 6.13397 9.8125 6.25 9.8125H8.875L12.8125 6.75V17.25L8.875 14.1875Z" stroke="#16191D" stroke-linecap="round" stroke-linejoin="round"/>
<path d="M8.875 9.8125V14.1875" stroke="#16191D" stroke-linecap="round" stroke-linejoin="round"/>
<path d="M15 10.8434C15.2815 11.1629 15.4367 11.5742 15.4367 12C15.4367 12.4258 15.2815 12.8371 15 13.1566" stroke="#16191D" stroke-linecap="round" stroke-linejoin="round"/>
<path d="M16.6226 9.375C17.2682 10.0969 17.6252 11.0315 17.6252 12C17.6252 12.9685 17.2682 13.9031 16.6226 14.625" stroke="#16191D" stroke-linecap="round" stroke-linejoin="round"/>
</svg>
